<?xml version="1.0" standalone="no"?>
<!DOCTYPE svg PUBLIC "-//W3C//DTD SVG 20010904//EN"
 "http://www.w3.org/TR/2001/REC-SVG-20010904/DTD/svg10.dtd">
<svg version="1.0" xmlns="http://www.w3.org/2000/svg"
 width="512.000000pt" height="512.000000pt" viewBox="0 0 512.000000 512.000000"
 preserveAspectRatio="xMidYMid meet">
<metadata>
Created by potrace 1.14, written by Peter Selinger 2001-2017
</metadata>
<g transform="translate(0.000000,512.000000) scale(0.100000,-0.100000)"
fill="#000000" stroke="none">
<path d="M1827 4452 c-9 -15 -1198 -3645 -1195 -3647 6 -6 452 -144 455 -141
7 7 1195 3647 1191 3651 -2 2 -98 33 -213 70 -116 36 -215 68 -222 70 -7 2
-14 1 -16 -3z"/>
<path d="M3436 2634 c-329 -1004 -596 -1827 -594 -1829 5 -6 451 -145 454
-142 5 6 1195 3650 1192 3652 -2 3 -367 119 -433 139 -19 5 -63 -127 -619
-1820z"/>
</g>
</svg>
