<?xml version="1.0" encoding="UTF-8" standalone="no"?>
<!DOCTYPE svg PUBLIC "-//W3C//DTD SVG 1.1//EN" "http://www.w3.org/Graphics/SVG/1.1/DTD/svg11.dtd">
<svg width="100%" height="100%" viewBox="0 0 32 32" version="1.1" xmlns="http://www.w3.org/2000/svg" xmlns:xlink="http://www.w3.org/1999/xlink" xml:space="preserve" xmlns:serif="http://www.serif.com/" style="fill-rule:evenodd;clip-rule:evenodd;stroke-linejoin:round;stroke-miterlimit:2;">
    <path d="M32,8C32,3.585 28.415,0 24,0L8,0C3.585,0 0,3.585 0,8L0,24C0,28.415 3.585,32 8,32L24,32C28.415,32 32,28.415 32,24L32,8Z" style="fill:white;"/>
    <g transform="matrix(1.08531,0,0,1.08531,-1.36492,-0.279609)">
        <g transform="matrix(1,0,0,1,5.84917,-0.463886)">
            <circle cx="10.151" cy="8.98" r="5.849" style="fill:rgb(51,51,51);"/>
        </g>
        <g transform="matrix(1,0,0,1,-1.6348,12.5041)">
            <circle cx="10.151" cy="8.98" r="5.849" style="fill:rgb(51,51,51);"/>
        </g>
        <g transform="matrix(1,0,0,1,13.3331,12.5041)">
            <circle cx="10.151" cy="8.98" r="5.849" style="fill:rgb(51,51,51);"/>
        </g>
    </g>
</svg>
